<svg width="799" height="145" viewBox="0 0 799 145" fill="none" xmlns="http://www.w3.org/2000/svg">
<path d="M604.435 109.211C595.901 109.211 588.604 107.734 582.542 104.781C576.481 101.748 571.855 97.0795 568.665 90.7743C565.554 84.4691 564 76.448 564 66.711C564 52.3441 567.509 41.6899 574.527 34.7466C581.625 27.7223 591.595 24.2109 604.435 24.2109C611.455 24.2109 617.754 25.4074 623.337 27.8019C628.919 30.1964 633.307 33.7888 636.497 38.5778C639.767 43.3652 641.402 49.3912 641.402 56.6542H623.457C623.457 52.823 622.659 49.5909 621.064 46.9577C619.549 44.323 617.356 42.3279 614.485 40.9723C611.693 39.5356 608.423 38.8165 604.675 38.8165C599.57 38.8165 595.343 39.8148 591.993 41.8099C588.724 43.8051 586.291 46.758 584.696 50.6687C583.181 54.4999 582.423 59.2093 582.423 64.7954V68.5064C582.423 74.2532 583.22 79.0812 584.816 82.9919C586.411 86.823 588.804 89.737 591.993 91.7321C595.263 93.6477 599.45 94.6055 604.555 94.6055C608.543 94.6055 612.013 93.9269 614.963 92.5698C617.914 91.2127 620.187 89.2175 621.782 86.5843C623.378 83.9497 624.174 80.7175 624.174 76.8863H641.402C641.402 84.1493 639.806 90.1753 636.617 94.9642C633.505 99.7532 629.159 103.344 623.576 105.739C617.994 108.054 611.614 109.211 604.435 109.211ZM670.64 109.211C668.566 109.211 666.333 108.971 663.941 108.492C661.627 108.013 659.434 107.175 657.361 105.979C655.286 104.701 653.572 102.906 652.217 100.591C650.94 98.1964 650.303 95.1639 650.303 91.4919C650.303 87.1022 651.26 83.4708 653.174 80.5989C655.088 77.7255 657.799 75.4902 661.308 73.8944C664.898 72.2175 669.164 71.06 674.109 70.422C679.053 69.784 684.517 69.4642 690.498 69.4642V64.7954C690.498 62.9594 690.18 61.3635 689.542 60.0064C688.983 58.6493 687.946 57.5729 686.431 56.7743C684.995 55.9756 682.961 55.5778 680.33 55.5778C677.699 55.5778 675.544 55.896 673.87 56.5356C672.274 57.1736 671.119 58.0113 670.4 59.0486C669.763 60.0064 669.443 61.0843 669.443 62.2808V63.7175H653.292C653.213 63.3197 653.174 62.9594 653.174 62.6411C653.174 62.2418 653.174 61.7629 653.174 61.2044C653.174 57.5324 654.29 54.3798 656.524 51.7466C658.756 49.0324 661.906 46.9577 665.973 45.521C670.042 44.0843 674.787 43.3652 680.21 43.3652C686.032 43.3652 690.897 44.1233 694.805 45.6411C698.794 47.1573 701.824 49.3912 703.897 52.3441C706.052 55.297 707.127 59.0096 707.127 63.4788V92.0908C707.127 93.5275 707.526 94.6054 708.324 95.323C709.202 95.9626 710.158 96.2808 711.196 96.2808H715.143V107.175C714.346 107.575 713.11 107.974 711.434 108.373C709.76 108.852 707.726 109.091 705.333 109.091C703.02 109.091 700.947 108.732 699.112 108.013C697.358 107.375 695.882 106.458 694.686 105.26C693.489 103.984 692.652 102.467 692.174 100.711H691.337C689.98 102.386 688.305 103.864 686.311 105.141C684.397 106.417 682.124 107.416 679.493 108.133C676.941 108.852 673.989 109.211 670.64 109.211ZM676.263 96.6411C678.495 96.6411 680.489 96.3213 682.244 95.6833C683.999 94.9642 685.474 94.047 686.671 92.9286C687.867 91.7321 688.783 90.2954 689.422 88.62C690.139 86.9431 690.498 85.1477 690.498 83.2321V79.7597C686.032 79.7597 682.045 80.0795 678.536 80.7175C675.027 81.2759 672.235 82.2743 670.162 83.711C668.167 85.1477 667.17 87.1428 667.17 89.6964C667.17 91.1331 667.529 92.3701 668.248 93.4074C668.965 94.4463 670.001 95.2435 671.357 95.802C672.714 96.3619 674.349 96.6411 676.263 96.6411ZM723.407 107.774V44.8019H737.165L738.481 54.62H739.318C740.116 52.5438 741.152 50.6687 742.429 48.9934C743.704 47.2369 745.3 45.8408 747.213 44.8019C749.127 43.7646 751.361 43.2466 753.913 43.2466C755.269 43.2466 756.505 43.4057 757.621 43.7255C758.739 43.9642 759.576 44.2044 760.134 44.4431V59.5275H754.99C752.518 59.5275 750.324 59.8863 748.41 60.6054C746.575 61.2434 745.02 62.2808 743.745 63.7175C742.468 65.1542 741.511 66.9106 740.873 68.9853C740.315 71.06 740.036 73.4951 740.036 76.2889V107.774H723.407ZM787.635 109.211C783.647 109.211 780.418 108.492 777.945 107.057C775.473 105.62 773.679 103.704 772.561 101.31C771.445 98.8359 770.887 96.1217 770.887 93.1688V57.612H763.11V44.8019H771.486L774.595 26.8441H787.516V44.8019H799V57.612H787.516V90.4155C787.516 92.3311 787.954 93.8068 788.832 94.8442C789.709 95.802 791.145 96.2808 793.139 96.2808H799V107.295C798.043 107.615 796.927 107.894 795.65 108.133C794.375 108.453 793.019 108.692 791.583 108.852C790.148 109.091 788.832 109.211 787.635 109.211Z" fill="white"/>
<path d="M30.7274 4.21094H165.334C168.614 4.21094 171.272 6.86924 171.272 10.1493V90.6312H24.7891V10.1493C24.7891 6.86924 27.4474 4.21094 30.7274 4.21094Z" stroke="white" stroke-width="8.42328"/>
<path d="M139.249 96.6797L146.379 107.05H26.9015L13.5063 133.841H195.206L196.74 136.567C198.663 139.986 196.192 144.211 192.269 144.211H5.1364C1.33105 144.211 -1.14978 140.214 0.540004 136.804L19.0066 99.5319C19.8725 97.7846 21.6536 96.6797 23.603 96.6797H139.249Z" fill="#4da6e8"/>
<path d="M162.384 81.7723L195.996 124.377L200.034 129.496L160.331 121.376L159.791 120.697L131.213 84.7322L128.141 80.8633H133.08L160.512 80.8643H161.669L162.384 81.7723Z" fill="#ED1D32" stroke="white" stroke-width="4.64784"/>
<path d="M84.0781 8.0957H111.78V11.1736C111.78 12.8737 110.402 14.2516 108.702 14.2516H87.1561C85.456 14.2516 84.0781 12.8737 84.0781 11.1736V8.0957Z" fill="rgba(255,255,255,0.3)"/>
<path d="M262.102 27.2549C270.766 27.2549 278.143 28.7774 284.232 31.8213C290.4 34.7874 295.123 39.3544 298.4 45.5215C301.679 51.6108 303.319 59.3783 303.319 68.8242C303.319 78.5828 301.524 86.5842 297.933 92.8291C294.343 99.074 289.268 103.68 282.71 106.646L300.743 124.212H278.027L264.912 110.159C264.366 110.238 263.779 110.276 263.155 110.276C262.53 110.354 261.946 110.394 261.399 110.394C253.046 110.394 245.825 108.871 239.735 105.827C233.725 102.704 229.081 98.0597 225.802 91.8926C222.601 85.7254 221 78.0353 221 68.8242C221 59.3783 222.639 51.6108 225.918 45.5215C229.197 39.3545 233.92 34.7874 240.087 31.8213C246.254 28.7774 253.592 27.2549 262.102 27.2549ZM331.887 85.9209C331.887 87.95 332.121 89.6681 332.59 91.0732C333.058 92.4006 333.722 93.4935 334.581 94.3525C335.518 95.2115 336.649 95.835 337.977 96.2256C339.304 96.6147 340.787 96.8105 342.427 96.8105C344.847 96.8105 347.032 96.2255 348.983 95.0537C350.935 93.8834 352.457 92.2831 353.55 90.2539C354.644 88.1453 355.19 85.8031 355.19 83.2275V47.3955H371.467V108.989H358.118L356.946 100.558H356.127C354.644 102.509 352.887 104.227 350.856 105.71C348.905 107.193 346.681 108.325 344.184 109.106C341.684 109.965 338.952 110.394 335.986 110.394C329.74 110.394 324.783 108.676 321.115 105.241C317.446 101.807 315.611 96.2635 315.611 88.6133V47.3955H331.887V85.9209ZM444.674 45.874C448.89 45.874 452.675 46.3809 456.033 47.3955C459.468 48.4116 462.434 49.972 464.932 52.0791C467.429 54.1877 469.303 56.803 470.553 59.9248C471.88 62.9701 472.544 66.5999 472.544 70.8154H456.267C456.267 68.0053 455.838 65.7015 454.979 63.9072C454.121 62.1115 452.793 60.7439 450.997 59.8086C449.281 58.8718 447.094 58.4033 444.44 58.4033C441.317 58.4033 438.78 59.1055 436.828 60.5107C434.877 61.916 433.432 63.9853 432.495 66.7178C431.56 69.4488 431.092 72.845 431.092 76.9033V79.5977C431.092 83.5784 431.56 86.9353 432.495 89.668C433.511 92.4006 435.033 94.4678 437.063 95.873C439.093 97.2005 441.747 97.8643 445.025 97.8643C447.68 97.8642 449.867 97.3958 451.583 96.459C453.379 95.5222 454.744 94.1167 455.681 92.2432C456.617 90.3696 457.086 88.1069 457.086 85.4521H472.544C472.544 89.4329 471.88 92.9852 470.553 96.1084C469.303 99.2301 467.429 101.846 464.932 103.954C462.512 106.061 459.584 107.661 456.149 108.755C452.715 109.847 448.89 110.394 444.674 110.394C438.116 110.394 432.613 109.262 428.164 106.998C423.715 104.656 420.319 101.104 417.977 96.3418C415.712 91.502 414.58 85.452 414.58 78.1924C414.58 70.7758 415.712 64.726 417.977 60.042C420.319 55.2802 423.715 51.7278 428.164 49.3857C432.691 47.0439 438.194 45.874 444.674 45.874ZM402.683 108.989H386.406V47.3955H402.683V108.989ZM501.025 73.04L522.572 47.3955H541.658L520.581 71.5176L542.713 108.989H524.094L509.926 82.9932L501.025 91.6592V108.989H484.75V24.2109H501.025V73.04ZM262.102 41.541C258.354 41.541 255.037 42.0867 252.148 43.1807C249.26 44.2731 246.839 45.9122 244.888 48.0986C242.936 50.2057 241.453 52.8605 240.438 56.0615C239.502 59.2611 239.033 62.9305 239.033 67.0684V70.6982C239.033 74.7568 239.502 78.3883 240.438 81.5879C241.453 84.7109 242.936 87.3645 244.888 89.5508C246.839 91.737 249.26 93.3754 252.148 94.4678C255.037 95.5617 258.354 96.1084 262.102 96.1084C265.926 96.1084 269.283 95.5616 272.171 94.4678C275.059 93.3753 277.479 91.7371 279.431 89.5508C281.384 87.3644 282.867 84.711 283.882 81.5879C284.896 78.3883 285.404 74.7568 285.404 70.6982V67.0684C285.404 62.9306 284.896 59.261 283.882 56.0615C282.867 52.8605 281.384 50.2057 279.431 48.0986C277.479 45.9122 275.059 44.2731 272.171 43.1807C269.283 42.0869 265.926 41.5411 262.102 41.541ZM402.683 38.3789H386.406V24.3271H402.683V38.3789Z" fill="white"/>
<path d="M277.955 92.4088L301.919 120.493L304.538 123.563H300.502H276.541H275.642L275.083 122.858L252.767 94.7758L250.367 91.7539H254.225L276.539 91.7554H277.398L277.955 92.4088Z" fill="#ED1D32" stroke="white" stroke-width="2.53594"/>
</svg>
