<svg width="220" height="220" viewBox="0 0 220 220" fill="none" xmlns="http://www.w3.org/2000/svg">
<rect width="220" height="220" fill="white"/>
<path d="M40.7274 40H175.334C178.614 40 181.272 42.6583 181.272 45.9384V126.42H34.7891V45.9384C34.7891 42.6583 37.4474 40 40.7274 40Z" stroke="#072654" stroke-width="8.42328"/>
<path d="M149.249 132.469L156.379 142.839H36.9015L23.5063 169.63H205.206L206.74 172.356C208.663 175.775 206.192 180 202.269 180H15.1364C11.331 180 8.85022 176.003 10.54 172.593L29.0066 135.321C29.8725 133.574 31.6536 132.469 33.603 132.469H149.249Z" fill="#0066BA"/>
<path d="M172.384 117.561L205.996 160.166L210.034 165.285L170.331 157.165L169.791 156.486L141.213 120.521L138.141 116.652H143.08L170.512 116.653H171.669L172.384 117.561Z" fill="#ED1D32" stroke="white" stroke-width="4.64784"/>
<path d="M94.0781 43.8848H121.78V46.9627C121.78 48.6628 120.402 50.0406 118.702 50.0406H97.1561C95.456 50.0406 94.0781 48.6628 94.0781 46.9627V43.8848Z" fill="#002039"/>
</svg>
